<?xml version="1.0" encoding="UTF-8" standalone="no"?>
<!-- Created with Inkscape (http://www.inkscape.org/) -->

<svg
   xmlns:dc="http://purl.org/dc/elements/1.1/"
   xmlns:cc="http://creativecommons.org/ns#"
   xmlns:rdf="http://www.w3.org/1999/02/22-rdf-syntax-ns#"
   xmlns:svg="http://www.w3.org/2000/svg"
   xmlns="http://www.w3.org/2000/svg"
   xmlns:sodipodi="http://sodipodi.sourceforge.net/DTD/sodipodi-0.dtd"
   xmlns:inkscape="http://www.inkscape.org/namespaces/inkscape"
   viewBox="0 0 159.814 159.618"
   id="svg3088"
   version="1.1"
   inkscape:version="0.48.3.1 r9886">
  <defs
     id="defs3090" />
  <sodipodi:namedview
     id="base"
     pagecolor="#ffffff"
     bordercolor="#666666"
     borderopacity="1.0"
     inkscape:pageopacity="0.0"
     inkscape:pageshadow="2"
     inkscape:zoom="0.35"
     inkscape:cx="237.76414"
     inkscape:cy="-237.33385"
     inkscape:document-units="px"
     inkscape:current-layer="layer1"
     showgrid="false"
     fit-margin-top="10"
     fit-margin-left="10"
     fit-margin-right="10"
     fit-margin-bottom="10"
     inkscape:window-width="1855"
     inkscape:window-height="1176"
     inkscape:window-x="65"
     inkscape:window-y="174"
     inkscape:window-maximized="1" />
  <metadata
     id="metadata3093">
    <rdf:RDF>
      <cc:Work
         rdf:about="">
        <dc:format>image/svg+xml</dc:format>
        <dc:type
           rdf:resource="http://purl.org/dc/dcmitype/StillImage" />
        <dc:title></dc:title>
      </cc:Work>
    </rdf:RDF>
  </metadata>
  <g
     inkscape:label="Layer 1"
     inkscape:groupmode="layer"
     id="layer1"
     transform="translate(-137.23586,-135.41033)">
    <g
       transform="translate(-88.614139,-210.13967)"
       id="g2991">
      <path
         style="fill:#3366cc"
         inkscape:connector-curvature="0"
         d="m 296.062,494.693 c -34.021,-4.717 -60.212,-33.92 -60.212,-69.238 0,-38.607 31.297,-69.905 69.906,-69.905 22.066,0 41.746,10.225 54.556,26.197 l -83.5,0.249 c 0,0 -10.91,1.85 -12.205,12.576 l 0.556,56.22 c 0,0 1.848,8.877 10.356,9.616 l 20.528,0.186 0.015,34.099 z"
         id="path2993" />
      <path
         style="fill:#3366cc"
         inkscape:connector-curvature="0"
         d="m 374.648,413.535 c -1.61,-9.382 -5.095,-18.125 -10.048,-25.831 h -36.374 l -6.288,9.643 h -41.98 v 47.713 l 15.718,-0.185 0.372,-20.527 c 0,0 2.217,-10.356 12.019,-11.282 l 66.581,0.469 z"
         id="path2995" />
      <path
         style="fill:#3366cc"
         inkscape:connector-curvature="0"
         d="m 310.998,445.06 v -16.183 l 36.83,-0.277 6.29,-10.276 h 21.185 c 0.239,2.346 0.361,4.726 0.361,7.132 0,7.071 -1.05,13.897 -3.003,20.33 l -61.663,-0.726 z"
         id="path2997" />
      <path
         style="fill:#3366cc"
         inkscape:connector-curvature="0"
         d="m 310.998,495.168 c 27.628,-2.049 50.785,-20.154 60.18,-45.021 l -30.09,0.366 -6.206,9.895 -23.884,0.184 v 34.576 z"
         id="path2999" />
    </g>
  </g>
</svg>
