<?xml version="1.0" encoding="UTF-8" standalone="no"?>
<!-- Created with Inkscape (http://www.inkscape.org/) -->

<svg
   xmlns:dc="http://purl.org/dc/elements/1.1/"
   xmlns:cc="http://creativecommons.org/ns#"
   xmlns:rdf="http://www.w3.org/1999/02/22-rdf-syntax-ns#"
   xmlns:svg="http://www.w3.org/2000/svg"
   xmlns="http://www.w3.org/2000/svg"
   xmlns:sodipodi="http://sodipodi.sourceforge.net/DTD/sodipodi-0.dtd"
   xmlns:inkscape="http://www.inkscape.org/namespaces/inkscape"
   width="382.6828"
   height="448.66238"
   id="svg8072"
   version="1.1"
   inkscape:version="0.48.4 r9939"
   sodipodi:docname="virtual-obj.svg">
  <defs
     id="defs8074" />
  <sodipodi:namedview
     id="base"
     pagecolor="#ffffff"
     bordercolor="#666666"
     borderopacity="1.0"
     inkscape:pageopacity="0.0"
     inkscape:pageshadow="2"
     inkscape:zoom="0.7"
     inkscape:cx="-183.72146"
     inkscape:cy="372.28623"
     inkscape:document-units="px"
     inkscape:current-layer="layer1"
     showgrid="false"
     inkscape:window-width="1855"
     inkscape:window-height="1056"
     inkscape:window-x="65"
     inkscape:window-y="24"
     inkscape:window-maximized="1"
     fit-margin-top="5"
     fit-margin-left="5"
     fit-margin-right="5"
     fit-margin-bottom="5" />
  <metadata
     id="metadata8077">
    <rdf:RDF>
      <cc:Work
         rdf:about="">
        <dc:format>image/svg+xml</dc:format>
        <dc:type
           rdf:resource="http://purl.org/dc/dcmitype/StillImage" />
        <dc:title></dc:title>
      </cc:Work>
    </rdf:RDF>
  </metadata>
  <g
     inkscape:label="Layer 1"
     inkscape:groupmode="layer"
     id="layer1"
     transform="translate(-228.44804,-130.21291)">
    <path
       style="fill:#00ceff;fill-opacity:1;fill-rule:nonzero;stroke:#000000;stroke-width:1.31294978;stroke-linecap:round;stroke-linejoin:round;stroke-miterlimit:4;stroke-opacity:1;stroke-dasharray:none;stroke-dashoffset:0"
       d="m 403.48201,394.58919 0,32.30697 -17.65182,0 34.39278,36.83343 34.39278,-36.83343 -17.65182,0 0,-32.30697 -33.48192,0 z"
       id="path8851"
       inkscape:connector-curvature="0" />
    <path
       sodipodi:type="arc"
       style="fill:#24eb21;fill-opacity:1;fill-rule:nonzero;stroke:#000000;stroke-width:1.66100001;stroke-linecap:round;stroke-linejoin:round;stroke-miterlimit:4;stroke-opacity:1;stroke-dasharray:none;stroke-dashoffset:0"
       id="path8084-5-0"
       sodipodi:cx="435.88083"
       sodipodi:cy="220.50156"
       sodipodi:rx="232.84016"
       sodipodi:ry="84.34774"
       d="m 668.72099,220.50156 c 0,46.58397 -104.24609,84.34774 -232.84016,84.34774 -128.59407,0 -232.84017,-37.76377 -232.84017,-84.34774 0,-46.58397 104.2461,-84.34774 232.84017,-84.34774 128.59407,0 232.84016,37.76377 232.84016,84.34774 z"
       transform="matrix(0.69817425,0,0,0.69817425,115.46868,45.759409)" />
    <path
       sodipodi:type="arc"
       style="fill:#219feb;fill-opacity:1;fill-rule:nonzero;stroke:#000000;stroke-width:1.66100001;stroke-linecap:round;stroke-linejoin:round;stroke-miterlimit:4;stroke-opacity:1;stroke-dasharray:none;stroke-dashoffset:0"
       id="path8654"
       sodipodi:cx="142.93658"
       sodipodi:cy="491.22244"
       sodipodi:rx="48.992397"
       sodipodi:ry="48.992397"
       d="m 191.92898,491.22244 c 0,27.05776 -21.93464,48.9924 -48.9924,48.9924 -27.05775,0 -48.992393,-21.93464 -48.992393,-48.9924 0,-27.05775 21.934643,-48.99239 48.992393,-48.99239 27.05776,0 48.9924,21.93464 48.9924,48.99239 z"
       transform="translate(196.97974,-264.65997)" />
    <text
       xml:space="preserve"
       style="font-size:20px;font-style:normal;font-variant:normal;font-weight:normal;font-stretch:normal;line-height:125%;letter-spacing:0px;word-spacing:0px;fill:#000000;fill-opacity:1;stroke:none;font-family:Monospace;-inkscape-font-specification:Monospace"
       x="302.03891"
       y="233.86801"
       id="text8898"
       sodipodi:linespacing="125%"><tspan
         sodipodi:role="line"
         x="302.03891"
         y="233.86801"
         id="tspan8900"><tspan
           x="302.03891"
           y="233.86801"
           id="tspan8902">Temp 1</tspan></tspan></text>
    <path
       sodipodi:type="arc"
       style="fill:#219feb;fill-opacity:1;fill-rule:nonzero;stroke:#000000;stroke-width:1.66100001;stroke-linecap:round;stroke-linejoin:round;stroke-miterlimit:4;stroke-opacity:1;stroke-dasharray:none;stroke-dashoffset:0"
       id="path8654-8"
       sodipodi:cx="142.93658"
       sodipodi:cy="491.22244"
       sodipodi:rx="48.992397"
       sodipodi:ry="48.992397"
       d="m 191.92898,491.22244 c 0,27.05776 -21.93464,48.9924 -48.9924,48.9924 -27.05775,0 -48.992393,-21.93464 -48.992393,-48.9924 0,-27.05775 21.934643,-48.99239 48.992393,-48.99239 27.05776,0 48.9924,21.93464 48.9924,48.99239 z"
       transform="translate(275.26657,-188.39345)" />
    <text
       xml:space="preserve"
       style="font-size:20px;font-style:normal;font-variant:normal;font-weight:normal;font-stretch:normal;line-height:125%;letter-spacing:0px;word-spacing:0px;fill:#000000;fill-opacity:1;stroke:none;font-family:Monospace;-inkscape-font-specification:Monospace"
       x="380.32574"
       y="310.13452"
       id="text8910"
       sodipodi:linespacing="125%"><tspan
         sodipodi:role="line"
         x="380.32574"
         y="310.13452"
         id="tspan8912"><tspan
           x="380.32574"
           y="310.13452"
           id="tspan8914">Temp 2</tspan></tspan></text>
    <path
       sodipodi:type="arc"
       style="fill:#219feb;fill-opacity:1;fill-rule:nonzero;stroke:#000000;stroke-width:1.66100001;stroke-linecap:round;stroke-linejoin:round;stroke-miterlimit:4;stroke-opacity:1;stroke-dasharray:none;stroke-dashoffset:0"
       id="path8654-8-0"
       sodipodi:cx="142.93658"
       sodipodi:cy="491.22244"
       sodipodi:rx="48.992397"
       sodipodi:ry="48.992397"
       d="m 191.92898,491.22244 c 0,27.05776 -21.93464,48.9924 -48.9924,48.9924 -27.05775,0 -48.992393,-21.93464 -48.992393,-48.9924 0,-27.05775 21.934643,-48.99239 48.992393,-48.99239 27.05776,0 48.9924,21.93464 48.9924,48.99239 z"
       transform="translate(345.97725,-270.21581)" />
    <text
       xml:space="preserve"
       style="font-size:20px;font-style:normal;font-variant:normal;font-weight:normal;font-stretch:normal;line-height:125%;letter-spacing:0px;word-spacing:0px;fill:#000000;fill-opacity:1;stroke:none;font-family:Monospace;-inkscape-font-specification:Monospace"
       x="461.13797"
       y="228.33249"
       id="text8904"
       sodipodi:linespacing="125%"><tspan
         sodipodi:role="line"
         x="461.13797"
         y="228.33249"
         id="tspan8906"><tspan
           x="461.13797"
           y="228.33249"
           id="tspan8908">Flow</tspan></tspan></text>
    <path
       sodipodi:type="arc"
       style="fill:#ff00d4;fill-opacity:1;fill-rule:nonzero;stroke:#000000;stroke-width:1.66100001;stroke-linecap:round;stroke-linejoin:round;stroke-miterlimit:4;stroke-opacity:1;stroke-dasharray:none;stroke-dashoffset:0"
       id="path8654-8-0-7"
       sodipodi:cx="142.93658"
       sodipodi:cy="491.22244"
       sodipodi:rx="48.992397"
       sodipodi:ry="48.992397"
       d="m 191.92898,491.22244 c 0,27.05776 -21.93464,48.9924 -48.9924,48.9924 -27.05775,0 -48.992393,-21.93464 -48.992393,-48.9924 0,-27.05775 21.934643,-48.99239 48.992393,-48.99239 27.05776,0 48.9924,21.93464 48.9924,48.99239 z"
       transform="translate(279.30718,32.829959)" />
    <text
       xml:space="preserve"
       style="font-size:20px;font-style:normal;font-variant:normal;font-weight:normal;font-stretch:normal;line-height:125%;letter-spacing:0px;word-spacing:0px;fill:#000000;fill-opacity:1;stroke:none;font-family:Monospace;-inkscape-font-specification:Monospace"
       x="394.4679"
       y="531.37823"
       id="text8916"
       sodipodi:linespacing="125%"><tspan
         sodipodi:role="line"
         x="394.4679"
         y="531.37823"
         id="tspan8918"><tspan
           x="394.4679"
           y="531.37823"
           id="tspan8920">Power</tspan></tspan></text>
    <path
       style="fill:#24eb21;fill-opacity:0.43378996;fill-rule:nonzero;stroke:#000000;stroke-width:1.32461131;stroke-linecap:round;stroke-linejoin:round;stroke-miterlimit:4;stroke-opacity:1;stroke-dasharray:none;stroke-dashoffset:0"
       d="m 419.80373,135.87522 c -102.55097,0 -185.69338,30.08952 -185.69338,67.23922 0,9.74022 5.71443,19.007 15.99574,27.36414 L 365.5896,384.46611 c 1.48687,10.3762 25.20079,18.62361 54.21413,18.62361 29.03584,0 52.73203,-8.23606 54.18556,-18.62361 L 589.4728,230.47858 c 10.28131,-8.35714 15.99573,-17.62392 15.99573,-27.36414 0,-37.1497 -83.11384,-67.23922 -185.6648,-67.23922 z m 0.22851,5.96983 c 89.78106,0 162.55668,26.37486 162.55668,58.89859 0,32.52373 -72.77562,58.87003 -162.55668,58.87003 -89.78107,0 -162.55668,-26.3463 -162.55668,-58.87003 0,-32.52373 72.77561,-58.89859 162.55668,-58.89859 z"
       id="path8084"
       inkscape:connector-curvature="0" />
  </g>
</svg>
